# Blender v3.0.1 OBJ File: 'emerald saphire jaune.blend'
# www.blender.org
mtllib emerald saphire jaune.mtl
o Emerald_Plane.006
v 5.262745 -3.033728 3.276762
v 6.082376 -3.033728 3.272446
v 5.262745 -1.483095 3.276761
v 6.082376 -1.483095 3.272446
v 5.262486 -3.120909 3.227623
v 6.082118 -3.120909 3.223308
v 5.262486 -1.395914 3.227623
v 6.082118 -1.395914 3.223308
v 5.177834 -3.033728 3.228069
v 6.166770 -3.033728 3.222862
v 5.177834 -1.483095 3.228069
v 6.166770 -1.483095 3.222862
v 5.028468 -3.033728 3.097351
v 6.314752 -3.033728 3.090579
v 5.028468 -1.483095 3.097351
v 6.314752 -1.483095 3.090579
v 5.261794 -3.257409 3.096123
v 6.081425 -3.257409 3.091808
v 5.261794 -1.259414 3.096123
v 6.081425 -1.259414 3.091807
v 5.028276 -3.033728 3.060988
v 6.314560 -3.033728 3.054216
v 5.028276 -1.483095 3.060987
v 6.314560 -1.483095 3.054216
v 5.261603 -3.257409 3.059759
v 6.081234 -3.257409 3.055444
v 5.261603 -1.259414 3.059759
v 6.081234 -1.259414 3.055444
v 5.142233 -2.920690 2.898147
v 6.198895 -2.920690 2.892584
v 5.142233 -1.596133 2.898147
v 6.198895 -1.596133 2.892584
v 5.333907 -3.104441 2.897138
v 6.007221 -3.104441 2.893593
v 5.333907 -1.412382 2.897138
v 6.007221 -1.412382 2.893593
v 5.669570 -2.645579 2.706620
v 5.669570 -1.871244 2.706620
v 5.406293 -1.743501 2.738216
v 5.406293 -2.773322 2.738216
v 5.933166 -2.773322 2.735442
v 5.933166 -1.743501 2.735442
v 6.245795 -1.476233 3.156694
v 6.245795 -3.040590 3.156694
v 5.098116 -3.040590 3.162736
v 5.098116 -1.476233 3.162736
v 5.258513 -1.319425 3.161892
v 6.085399 -1.319425 3.157538
v 6.085399 -3.197397 3.157539
v 5.258513 -3.197397 3.161892
vt 0.000000 0.000000
vt 1.000000 0.000000
vt 1.000000 1.000000
vt 0.000000 1.000000
vt 1.000000 1.000000
vt 0.000000 1.000000
vt 0.000000 0.000000
vt 1.000000 0.000000
vt 1.000000 0.000000
vt 1.000000 1.000000
vt 0.000000 1.000000
vt 0.000000 0.000000
vt 1.000000 1.000000
vt 1.000000 0.000000
vt 1.000000 0.000000
vt 1.000000 1.000000
vt 0.000000 0.000000
vt 0.000000 1.000000
vt 0.000000 1.000000
vt 0.000000 0.000000
vt 0.000000 1.000000
vt 1.000000 1.000000
vt 1.000000 1.000000
vt 0.000000 1.000000
vt 1.000000 0.000000
vt 0.000000 0.000000
vt 0.000000 0.000000
vt 1.000000 0.000000
vt 0.000000 0.000000
vt 0.000000 0.000000
vt 1.000000 1.000000
vt 1.000000 1.000000
vt 1.000000 0.000000
vt 0.000000 1.000000
vt 0.000000 1.000000
vt 1.000000 0.000000
vt 1.000000 0.000000
vt 1.000000 1.000000
vt 0.000000 1.000000
vt 0.000000 1.000000
vt 1.000000 0.000000
vt 0.000000 0.000000
vt 0.000000 0.000000
vt 1.000000 1.000000
vt 0.000000 0.000000
vt 1.000000 1.000000
vt 0.000000 1.000000
vt 1.000000 0.000000
vt 0.156919 0.828672
vt 0.156919 0.171328
vt 0.843081 0.171328
vt 0.843081 0.828672
vn 0.0053 0.0000 1.0000
vn 0.0046 0.4910 0.8711
vn 0.0046 -0.4910 0.8711
vn 0.5066 0.0000 0.8622
vn -0.4975 0.0000 0.8675
vn 0.6921 0.0000 0.7218
vn -0.6844 0.0000 0.7291
vn 0.0035 0.7386 0.6741
vn 0.0035 -0.7386 0.6741
vn -0.4472 0.4382 0.7798
vn 0.4554 0.4382 0.7750
vn 0.4554 -0.4382 0.7750
vn -0.4472 -0.4382 0.7798
vn 0.5887 -0.6063 0.5346
vn 0.5294 0.5282 0.6639
vn -0.5831 0.6063 0.5407
vn -0.5224 -0.5282 0.6695
vn -0.6920 -0.7219 0.0036
vn 0.6920 0.7219 -0.0036
vn 0.0000 -1.0000 0.0000
vn -1.0000 -0.0000 0.0053
vn -0.6920 0.7219 0.0036
vn 0.0000 1.0000 0.0000
vn 0.6920 -0.7219 -0.0037
vn 1.0000 0.0000 -0.0053
vn 0.8132 -0.0000 -0.5819
vn -0.4948 0.5123 -0.7019
vn 0.4874 -0.5123 -0.7071
vn -0.0036 -0.7276 -0.6860
vn -0.8193 -0.0000 -0.5734
vn -0.4948 -0.5123 -0.7019
vn 0.4874 0.5123 -0.7071
vn -0.0036 0.7276 -0.6860
vn -0.3368 -0.3465 -0.8755
vn 0.3276 0.3465 -0.8790
vn -0.0047 0.4318 -0.9019
vn 0.5090 0.0000 -0.8608
vn -0.3368 0.3465 -0.8755
vn 0.3276 -0.3465 -0.8790
vn -0.0047 -0.4318 -0.9019
vn -0.5180 -0.0000 -0.8554
vn -0.1192 -0.0000 -0.9929
vn 0.1087 0.0000 -0.9941
vn -0.0051 0.2301 -0.9731
vn -0.0051 -0.2301 -0.9731
vn -0.5831 -0.6063 0.5407
vn -0.5224 0.5282 0.6695
vn 0.5887 0.6063 0.5346
vn 0.5294 -0.5282 0.6639
vn 0.0040 -0.6519 0.7583
vn 0.0040 0.6519 0.7583
vn -0.6339 0.0000 0.7734
vn 0.6420 0.0000 0.7667
usemtl Material
s 1
f 1/1/1 2/2/1 4/3/1 3/4/1
f 3/4/2 4/3/2 8/5/2 7/6/2
f 2/2/3 1/1/3 5/7/3 6/8/3
f 4/3/4 2/2/4 10/9/4 12/10/4
f 1/1/5 3/4/5 11/11/5 9/12/5
f 43/13/6 44/14/6 14/15/6 16/16/6
f 45/17/7 46/18/7 15/19/7 13/20/7
f 47/21/8 48/22/8 20/23/8 19/24/8
f 49/25/9 50/26/9 17/27/9 18/28/9
f 3/4/10 7/6/10 11/11/10
f 4/3/11 12/10/11 8/5/11
f 2/2/12 6/8/12 10/9/12
f 1/1/13 9/12/13 5/7/13
f 44/14/14 49/25/14 18/28/14 14/15/14
f 43/13/15 48/22/15 8/5/15 12/10/15
f 46/18/16 47/21/16 19/24/16 15/19/16
f 45/17/17 50/26/17 5/7/17 9/12/17
f 17/27/18 13/20/18 21/29/18 25/30/18
f 20/23/19 16/16/19 24/31/19 28/32/19
f 18/28/20 17/27/20 25/30/20 26/33/20
f 13/20/21 15/19/21 23/34/21 21/29/21
f 15/19/22 19/24/22 27/35/22 23/34/22
f 19/24/23 20/23/23 28/32/23 27/35/23
f 14/15/24 18/28/24 26/33/24 22/36/24
f 16/16/25 14/15/25 22/36/25 24/31/25
f 24/31/26 22/36/26 30/37/26 32/38/26
f 23/34/27 27/35/27 35/39/27 31/40/27
f 22/36/28 26/33/28 34/41/28 30/37/28
f 26/33/29 25/30/29 33/42/29 34/41/29
f 21/29/30 23/34/30 31/40/30 29/43/30
f 25/30/31 21/29/31 29/43/31 33/42/31
f 28/32/32 24/31/32 32/38/32 36/44/32
f 27/35/33 28/32/33 36/44/33 35/39/33
f 33/42/34 29/43/34 40/45/34
f 36/44/35 32/38/35 42/46/35
f 35/39/36 36/44/36 42/46/36 39/47/36
f 32/38/37 30/37/37 41/48/37 42/46/37
f 31/40/38 35/39/38 39/47/38
f 30/37/39 34/41/39 41/48/39
f 34/41/40 33/42/40 40/45/40 41/48/40
f 29/43/41 31/40/41 39/47/41 40/45/41
f 38/49/42 37/50/42 40/45/42 39/47/42
f 37/51/43 38/52/43 42/46/43 41/48/43
f 38/49/44 39/47/44 42/46/44
f 37/51/45 41/48/45 40/45/45
f 13/20/46 17/27/46 50/26/46 45/17/46
f 11/11/47 7/6/47 47/21/47 46/18/47
f 16/16/48 20/23/48 48/22/48 43/13/48
f 10/9/49 6/8/49 49/25/49 44/14/49
f 6/8/50 5/7/50 50/26/50 49/25/50
f 7/6/51 8/5/51 48/22/51 47/21/51
f 9/12/52 11/11/52 46/18/52 45/17/52
f 12/10/53 10/9/53 44/14/53 43/13/53
